<?xml version="1.0" encoding="UTF-8"?>
<svg width="90px" height="64px" viewBox="0 0 90 64" version="1.1" xmlns="http://www.w3.org/2000/svg" xmlns:xlink="http://www.w3.org/1999/xlink">
    <!-- Generator: Sketch 56.3 (81716) - https://sketch.com -->
    <title>Group</title>
    <desc>Created with Sketch.</desc>
    <g id="Page-1" stroke="none" stroke-width="1" fill="none" fill-rule="evenodd">
        <g id="Group" fill-rule="nonzero">
            <g fill="#F24141" id="Shape">
                <path d="M77.3136175,0 L40.7021426,0 L36.4069416,0 C33.3389409,0 30.2709402,1.2 27.8165396,3.2 L27.8165396,3.2 L27.2029395,3.8 L1.84080042,27.6 C0.61360014,28.8 0,30.4 0,32 C0,33.6 0.61360014,35.2 1.84080042,36.4 L27.2029395,60.2 L27.8165396,60.8 C30.2709402,63 33.3389409,64 36.4069416,64 L40.7021426,64 L77.1090841,64 C84.2677524,64 89.9946871,58.4 89.9946871,51.4 L89.9946871,12.6 C90.1992204,5.6 84.4722858,0 77.3136175,0 L77.3136175,0 L77.3136175,0 Z"></path>
            </g>
            <path d="M68.5,43.28 C68.9800024,43.7600024 69.22,44.3399966 69.22,45.02 C69.22,45.620003 69.0000022,46.1399978 68.56,46.58 C68.1199978,47.0200022 67.600003,47.24 67,47.24 C66.36,47.24 65.7800026,46.9600028 65.26,46.4 L55.54,35.3 L45.88,46.4 C45.36,46.9600028 44.7800032,47.24 44.14,47.24 C43.539997,47.24 43.0100023,47.0200022 42.55,46.58 C42.0899977,46.1399978 41.86,45.6000032 41.86,44.96 C41.86,44.359997 42.0999976,43.8000026 42.58,43.28 L52.54,32.06 L43,21.2 C42.5199976,20.6399972 42.28,20.0800028 42.28,19.52 C42.28,18.8799968 42.5099977,18.3400022 42.97,17.9 C43.4300023,17.4599978 43.9399972,17.24 44.5,17.24 C45.1400032,17.24 45.7199974,17.5199972 46.24,18.08 L55.54,28.76 L64.84,18.08 C65.36,17.5199972 65.9399968,17.24 66.58,17.24 C67.180003,17.24 67.6999978,17.4599978 68.14,17.9 C68.5800022,18.3400022 68.8,18.859997 68.8,19.46 C68.8,20.1400034 68.5600024,20.7199976 68.08,21.2 L58.54,32.06 L68.5,43.28 Z" id="x" fill="#FFFFFF"></path>
        </g>
    </g>
</svg>