<?xml version="1.0" encoding="UTF-8"?>
<svg width="394px" height="146px" viewBox="0 0 394 146" version="1.1" xmlns="http://www.w3.org/2000/svg" xmlns:xlink="http://www.w3.org/1999/xlink">
    <!-- Generator: Sketch 56.3 (81716) - https://sketch.com -->
    <title>Group 2</title>
    <desc>Created with Sketch.</desc>
    <g id="Page-2" stroke="none" stroke-width="1" fill="none" fill-rule="evenodd">
        <g id="Desktop" transform="translate(-101.000000, -208.000000)" fill="#FFFFFF">
            <g id="Group-2" transform="translate(101.000000, 208.000000)">
                <path d="M141.186517,35 C144.227731,35 147.225453,35.7698188 150.179775,37.3094796 C153.134097,38.8491403 155.740813,41.0266278 158,43.8420074 L149.006742,64.2973978 C146.486879,60.7781732 143.054703,59.0185874 138.710112,59.0185874 C134.017954,59.0185874 130.520611,60.7121888 128.217978,64.0994424 C125.915344,67.486696 124.590264,73.0073967 124.242697,80.66171 L124.242697,106 L100,106 L100,35.6598513 L124.242697,35.6598513 L124.242697,41.7304833 C126.588776,39.6189486 129.260659,37.9693368 132.258427,36.7815985 C135.256195,35.5938602 138.232195,35 141.186517,35 Z M208.578856,105.475046 L208.445407,99.3068392 C206.043316,101.319172 203.062987,102.937763 199.504333,104.162662 C195.945678,105.38756 192.298112,106 188.561525,106 C182.689745,106 177.262879,104.403282 172.280763,101.209797 C167.298646,98.0163118 163.339703,93.7073592 160.403813,88.2828096 C157.467923,82.85826 156,76.9088432 156,70.4343808 C156,63.8724256 157.512405,57.8792631 160.537262,52.4547135 C163.562118,47.0301639 167.721233,42.764957 173.014731,39.6589649 C178.30823,36.5529728 184.15768,35 190.563258,35 C194.032946,35 197.302411,35.5686943 200.37175,36.7060998 C203.44109,37.8435054 205.909869,39.418351 207.778163,41.4306839 L207.778163,35.7874307 L229.930676,35.7874307 L233,105.475046 L208.578856,105.475046 Z M192.433498,85 C194.738928,85 196.955654,84.2922662 199.083744,82.8767773 C201.211833,81.4612883 202.896546,79.5813703 204.137931,77.2369668 C205.379317,74.8925633 206,72.3933782 206,69.7393365 C206,66.1121462 204.825135,63.0821607 202.475369,60.6492891 C200.125604,58.2164175 197.177358,57 193.630542,57 C189.729045,57 186.315286,58.3712343 183.389163,61.1137441 C180.46304,63.8562538 179,67.1295228 179,70.9336493 C179,73.2338188 179.642851,75.4897204 180.928571,77.7014218 C182.214292,79.9131232 183.899004,81.6824578 185.982759,83.0094787 C188.066513,84.3364995 190.216738,85 192.433498,85 Z M286.13073,34.4821648 C290.986442,34.5699061 295.643441,36.3466411 300.101868,39.8124231 C304.560294,43.2782051 308.157881,47.7748801 310.894737,53.302583 C313.631593,58.8302859 315,64.5772559 315,70.5436654 C315,77.0365228 313.675735,83.0905828 311.027165,88.7060271 C308.378595,94.3214713 304.803079,98.7742763 300.300509,102.064576 C295.79794,105.354875 290.942301,107 285.733447,107 C281.495734,107 277.302228,106.25421 273.152801,104.762608 C269.003375,103.271005 265.560285,101.340725 262.82343,98.9717097 L262.82343,106.341943 L237,106.341943 L237,2.10578106 L263.485569,0 L263.220713,40.799508 C269.224139,36.3247009 276.860735,34.2189409 286.13073,34.4821648 Z M277.264151,84 C279.553471,84 281.776719,83.3239943 283.933962,81.9719626 C286.091206,80.6199309 287.80817,78.8535935 289.084906,76.6728972 C290.361642,74.4922009 291,72.2243108 291,69.8691589 C291,66.1183613 289.613221,62.8691726 286.839623,60.1214953 C284.066024,57.373818 280.874232,56 277.264151,56 C273.477968,56 270.154102,57.373818 267.292453,60.1214953 C264.430803,62.8691726 263,66.074748 263,69.7383178 C263,72.0934697 263.682383,74.3831664 265.04717,76.6074766 C266.411957,78.8317868 268.194958,80.6199309 270.396226,81.9719626 C272.597495,83.3239943 274.886781,84 277.264151,84 Z M369.578856,105.475046 L369.445407,99.3068392 C367.043316,101.319172 364.062987,102.937763 360.504333,104.162662 C356.945678,105.38756 353.298112,106 349.561525,106 C343.689745,106 338.262879,104.403282 333.280763,101.209797 C328.298646,98.0163118 324.339703,93.7073592 321.403813,88.2828096 C318.467923,82.85826 317,76.9088432 317,70.4343808 C317,63.8724256 318.512405,57.8792631 321.537262,52.4547135 C324.562118,47.0301639 328.721233,42.764957 334.014731,39.6589649 C339.30823,36.5529728 345.15768,35 351.563258,35 C355.032946,35 358.302411,35.5686943 361.37175,36.7060998 C364.44109,37.8435054 366.909869,39.418351 368.778163,41.4306839 L368.778163,35.7874307 L390.930676,35.7874307 L394,105.475046 L369.578856,105.475046 Z M353.433498,85 C355.738928,85 357.955654,84.2922662 360.083744,82.8767773 C362.211833,81.4612883 363.896546,79.5813703 365.137931,77.2369668 C366.379317,74.8925633 367,72.3933782 367,69.7393365 C367,66.1121462 365.825135,63.0821607 363.475369,60.6492891 C361.125604,58.2164175 358.177358,57 354.630542,57 C350.729045,57 347.315286,58.3712343 344.389163,61.1137441 C341.46304,63.8562538 340,67.1295228 340,70.9336493 C340,73.2338188 340.642851,75.4897204 341.928571,77.7014218 C343.214292,79.9131232 344.899004,81.6824578 346.982759,83.0094787 C349.066513,84.3364995 351.216738,85 353.433498,85 Z" id="raba"></path>
                <path d="M45.6380256,146 C45.1432029,146 44.7464975,145.844118 44.4478976,145.532349 C44.1492977,145.22058 44,144.797471 44,144.26301 L44,128.630098 C44,128.113453 44.1407664,127.712613 44.4223035,127.427567 C44.7038405,127.142521 45.0920146,127 45.5868373,127 L51.8829982,127 C53.8111004,127 55.3126089,127.503277 56.3875686,128.509845 C57.4625282,129.516414 58,130.928261 58,132.745429 C58,134.562597 57.4625282,135.978898 56.3875686,136.994374 C55.3126089,138.00985 53.8111004,138.517581 51.8829982,138.517581 L47.3016453,138.517581 L47.3016453,144.26301 C47.3016453,144.797471 47.1523476,145.22058 46.8537477,145.532349 C46.5551478,145.844118 46.1499112,146 45.6380256,146 Z M51.4054054,136 C53.8018138,136 55,135 55,133 C55,131 53.8018138,130 51.4054054,130 L47,130 L47,136 L51.4054054,136 Z M76.8454936,143.847552 C76.9484984,144.077857 77,144.308157 77,144.538462 C77,144.945923 76.8412033,145.291374 76.5236052,145.574825 C76.206007,145.858276 75.8412038,146 75.4291845,146 C75.1545051,146 74.8969969,145.924709 74.6566524,145.774126 C74.4163078,145.623542 74.2274685,145.388813 74.0901288,145.06993 L72.5450644,141.509091 L63.4806867,141.509091 L61.9356223,145.06993 C61.7982826,145.388813 61.6094433,145.623542 61.3690987,145.774126 C61.1287542,145.924709 60.8626624,146 60.5708155,146 C60.1759637,146 59.8154523,145.858276 59.4892704,145.574825 C59.1630885,145.291374 59,144.945923 59,144.538462 C59,144.308157 59.0515016,144.077857 59.1545064,143.847552 L66.2618026,128.08951 C66.4163098,127.735196 66.6523589,127.465036 66.9699571,127.279021 C67.2875552,127.093006 67.6266076,127 67.9871245,127 C68.3476413,127 68.6866937,127.093006 69.0042918,127.279021 C69.32189,127.465036 69.5579391,127.735196 69.7124464,128.08951 L76.8454936,143.847552 Z M65,139 L72,139 L68.5,131 L65,139 Z M90.3376835,127.583799 C90.6508988,127.194598 91.0250114,127 91.4600326,127 C91.8602521,127 92.2169642,127.154794 92.5301794,127.464385 C92.8433947,127.773977 93,128.141059 93,128.565642 C93,128.919462 92.8694956,129.255585 92.6084829,129.574022 L86.6835237,136.924581 L86.6835237,144.27514 C86.6835237,144.82356 86.5269184,145.248136 86.2137031,145.548883 C85.9004878,145.849629 85.5002743,146 85.0130506,146 C84.508426,146 84.0995122,145.849629 83.7862969,145.548883 C83.4730816,145.248136 83.3164763,144.82356 83.3164763,144.27514 L83.3164763,136.924581 L77.3915171,129.574022 C77.1305044,129.255585 77,128.919462 77,128.565642 C77,128.141059 77.1566053,127.773977 77.4698206,127.464385 C77.7830358,127.154794 78.1397479,127 78.5399674,127 C78.9749886,127 79.3491012,127.194598 79.6623165,127.583799 L85.0130506,134.324022 L90.3376835,127.583799 Z M112.373178,127 C112.862976,127 113.256558,127.154794 113.553936,127.464385 C113.851313,127.773977 114,128.185286 114,128.698324 L114,144.407821 C114,144.903168 113.86006,145.292364 113.580175,145.575419 C113.30029,145.858474 112.932947,146 112.478134,146 C112.023321,146 111.664724,145.858474 111.402332,145.575419 C111.13994,145.292364 111.008746,144.903168 111.008746,144.407821 L111.008746,133.47486 L106.548105,142.019553 C106.338191,142.408754 106.110788,142.696228 105.865889,142.881983 C105.62099,143.067738 105.332363,143.160615 105,143.160615 C104.667637,143.160615 104.37901,143.072161 104.134111,142.895251 C103.889212,142.718342 103.661809,142.426445 103.451895,142.019553 L98.9650146,133.607542 L98.9650146,144.407821 C98.9650146,144.885477 98.8294474,145.27025 98.558309,145.562151 C98.2871707,145.854052 97.9242005,146 97.4693878,146 C97.014575,146 96.655978,145.858474 96.393586,145.575419 C96.131194,145.292364 96,144.903168 96,144.407821 L96,128.698324 C96,128.185286 96.1443134,127.773977 96.4329446,127.464385 C96.7215758,127.154794 97.1107847,127 97.6005831,127 C98.2828022,127 98.8163246,127.38035 99.2011662,128.141061 L105.026239,139.365922 L110.825073,128.141061 C111.209914,127.38035 111.725944,127 112.373178,127 Z M120.665289,146 C120.146003,146 119.738638,145.856266 119.443182,145.568794 C119.147726,145.281322 119,144.877071 119,144.356028 L119,128.643972 C119,128.122929 119.147726,127.718678 119.443182,127.431206 C119.738638,127.143734 120.146003,127 120.665289,127 L130.36157,127 C130.880857,127 131.283745,127.116784 131.570248,127.350355 C131.856751,127.583926 132,127.91631 132,128.347518 C132,128.796693 131.856751,129.142552 131.570248,129.385106 C131.283745,129.627661 130.880857,129.748936 130.36157,129.748936 L122.384298,129.748936 L122.384298,134.977305 L129.82438,134.977305 C130.343667,134.977305 130.746555,135.094089 131.033058,135.32766 C131.319561,135.56123 131.46281,135.902598 131.46281,136.351773 C131.46281,136.782981 131.319561,137.115365 131.033058,137.348936 C130.746555,137.582507 130.343667,137.699291 129.82438,137.699291 L122.384298,137.699291 L122.384298,143.251064 L130.36157,143.251064 C130.880857,143.251064 131.283745,143.372339 131.570248,143.614894 C131.856751,143.857448 132,144.203307 132,144.652482 C132,145.08369 131.856751,145.416074 131.570248,145.649645 C131.283745,145.883216 130.880857,146 130.36157,146 L120.665289,146 Z M149.359664,127 C149.861627,127 150.260503,127.154794 150.556303,127.464385 C150.852102,127.773977 151,128.185286 151,128.698324 L151,144.27514 C151,144.788178 150.847621,145.203909 150.542857,145.522346 C150.238094,145.840784 149.8437,146 149.359664,146 C148.785992,146 148.34678,145.796557 148.042017,145.389665 L138.226891,132.784916 L138.226891,144.27514 C138.226891,144.788178 138.083475,145.203909 137.796639,145.522346 C137.509802,145.840784 137.115409,146 136.613445,146 C136.111482,146 135.717088,145.840784 135.430252,145.522346 C135.143416,145.203909 135,144.788178 135,144.27514 L135,128.698324 C135,128.185286 135.152379,127.773977 135.457143,127.464385 C135.761906,127.154794 136.165264,127 136.667227,127 C137.222972,127 137.65322,127.203443 137.957983,127.610335 L147.746218,140.162011 L147.746218,128.698324 C147.746218,128.185286 147.894116,127.773977 148.189916,127.464385 C148.485716,127.154794 148.875628,127 149.359664,127 Z M162.013051,146 C161.491025,146 161.077761,145.843898 160.773246,145.53169 C160.468731,145.219482 160.316476,144.804697 160.316476,144.287324 L160.316476,129.83662 L155.566069,129.83662 C154.522018,129.83662 154,129.363854 154,128.41831 C154,127.472765 154.522018,127 155.566069,127 L168.433931,127 C169.477982,127 170,127.472765 170,128.41831 C170,129.363854 169.477982,129.83662 168.433931,129.83662 L163.683524,129.83662 L163.683524,144.287324 C163.683524,144.804697 163.531269,145.219482 163.226754,145.53169 C162.922239,145.843898 162.517675,146 162.013051,146 Z M178.567568,146 C177.180173,146 175.869376,145.820426 174.635135,145.461272 C173.400895,145.102119 172.3964,144.615955 171.621622,144.002766 C171.207205,143.704932 171,143.284466 171,142.741355 C171,142.373442 171.112611,142.053713 171.337838,141.782158 C171.563064,141.510603 171.828827,141.374827 172.135135,141.374827 C172.459461,141.374827 172.828827,141.497463 173.243243,141.742739 C174.018022,142.285849 174.828825,142.680036 175.675676,142.925311 C176.522527,143.170587 177.459454,143.293223 178.486486,143.293223 C179.801808,143.293223 180.810807,143.06985 181.513514,142.623098 C182.21622,142.176346 182.567568,141.523748 182.567568,140.665284 C182.567568,139.999536 182.238742,139.487093 181.581081,139.127939 C180.92342,138.768786 179.828836,138.422777 178.297297,138.089903 C176.711704,137.757029 175.423428,137.371602 174.432432,136.93361 C173.441436,136.495618 172.693696,135.934997 172.189189,135.251729 C171.684682,134.568461 171.432432,133.70125 171.432432,132.650069 C171.432432,131.563849 171.747745,130.591521 172.378378,129.733057 C173.009012,128.874592 173.887382,128.204475 175.013514,127.722683 C176.139645,127.240892 177.405398,127 178.810811,127 C181.3874,127 183.486478,127.665738 185.108108,128.997234 C185.342344,129.18995 185.509009,129.378284 185.608108,129.562241 C185.707208,129.746197 185.756757,129.97833 185.756757,130.258645 C185.756757,130.626558 185.644145,130.946287 185.418919,131.217842 C185.193693,131.489397 184.927929,131.625173 184.621622,131.625173 C184.441441,131.625173 184.274776,131.598894 184.121622,131.546335 C183.968468,131.493776 183.765767,131.397419 183.513514,131.257261 C182.774771,130.731671 182.058562,130.341864 181.364865,130.087828 C180.671168,129.833793 179.819825,129.706777 178.810811,129.706777 C177.585579,129.706777 176.617121,129.947669 175.905405,130.429461 C175.19369,130.911252 174.837838,131.58137 174.837838,132.439834 C174.837838,133.158141 175.15315,133.710003 175.783784,134.095436 C176.414418,134.480869 177.486479,134.840017 179,135.172891 C180.603612,135.523284 181.9054,135.913091 182.905405,136.342324 C183.90541,136.771556 184.671169,137.319038 185.202703,137.984786 C185.734237,138.650534 186,139.482706 186,140.481328 C186,141.567548 185.689192,142.526736 185.067568,143.358921 C184.445943,144.191106 183.572078,144.839325 182.445946,145.303596 C181.319814,145.767868 180.027034,146 178.567568,146 Z M205.611584,146 C203.873927,146 202.353499,145.614573 201.050256,144.843707 C199.747012,144.072841 198.74617,142.969117 198.0477,141.532503 C197.34923,140.09589 197,138.414025 197,136.48686 C197,134.559695 197.34923,132.882211 198.0477,131.454357 C198.74617,130.026503 199.747012,128.927159 201.050256,128.156293 C202.353499,127.385427 203.873927,127 205.611584,127 C206.735951,127 207.792159,127.170814 208.780239,127.512448 C209.768318,127.854082 210.645652,128.349006 211.412266,128.997234 C211.633732,129.172431 211.787052,129.356384 211.872232,129.549101 C211.957411,129.741817 212,129.97833 212,130.258645 C212,130.644078 211.897786,130.968187 211.693356,131.230982 C211.488926,131.493777 211.241909,131.625173 210.9523,131.625173 C210.611583,131.625173 210.262353,131.502537 209.9046,131.257261 C209.172058,130.696632 208.490633,130.306825 207.860307,130.087828 C207.22998,129.868832 206.53152,129.759336 205.764906,129.759336 C203.993177,129.759336 202.651623,130.328717 201.740204,131.467497 C200.828786,132.606276 200.373083,134.27938 200.373083,136.48686 C200.373083,138.71186 200.828786,140.393724 201.740204,141.532503 C202.651623,142.671283 203.993177,143.240664 205.764906,143.240664 C206.497448,143.240664 207.174614,143.126788 207.796422,142.899032 C208.418231,142.671276 209.12095,142.285849 209.9046,141.742739 C210.074958,141.63762 210.245314,141.550023 210.415673,141.479945 C210.586032,141.409866 210.764905,141.374827 210.9523,141.374827 C211.241909,141.374827 211.488926,141.506223 211.693356,141.769018 C211.897786,142.031813 212,142.355922 212,142.741355 C212,143.004151 211.957411,143.236283 211.872232,143.437759 C211.787052,143.639236 211.633732,143.827569 211.412266,144.002766 C210.645652,144.650994 209.768318,145.145918 208.780239,145.487552 C207.792159,145.829186 206.735951,146 205.611584,146 Z M232.845494,143.847552 C232.948498,144.077857 233,144.308157 233,144.538462 C233,144.945923 232.841203,145.291374 232.523605,145.574825 C232.206007,145.858276 231.841204,146 231.429185,146 C231.154505,146 230.896997,145.924709 230.656652,145.774126 C230.416308,145.623542 230.227468,145.388813 230.090129,145.06993 L228.545064,141.509091 L219.480687,141.509091 L217.935622,145.06993 C217.798283,145.388813 217.609443,145.623542 217.369099,145.774126 C217.128754,145.924709 216.862662,146 216.570815,146 C216.175964,146 215.815452,145.858276 215.48927,145.574825 C215.163088,145.291374 215,144.945923 215,144.538462 C215,144.308157 215.051502,144.077857 215.154506,143.847552 L222.261803,128.08951 C222.41631,127.735196 222.652359,127.465036 222.969957,127.279021 C223.287555,127.093006 223.626608,127 223.987124,127 C224.347641,127 224.686694,127.093006 225.004292,127.279021 C225.32189,127.465036 225.557939,127.735196 225.712446,128.08951 L232.845494,143.847552 Z M220,139 L227,139 L223.5,131 L220,139 Z M250.359664,127 C250.861627,127 251.260503,127.154794 251.556303,127.464385 C251.852102,127.773977 252,128.185286 252,128.698324 L252,144.27514 C252,144.788178 251.847621,145.203909 251.542857,145.522346 C251.238094,145.840784 250.8437,146 250.359664,146 C249.785992,146 249.34678,145.796557 249.042017,145.389665 L239.226891,132.784916 L239.226891,144.27514 C239.226891,144.788178 239.083475,145.203909 238.796639,145.522346 C238.509802,145.840784 238.115409,146 237.613445,146 C237.111482,146 236.717088,145.840784 236.430252,145.522346 C236.143416,145.203909 236,144.788178 236,144.27514 L236,128.698324 C236,128.185286 236.152379,127.773977 236.457143,127.464385 C236.761906,127.154794 237.165264,127 237.667227,127 C238.222972,127 238.65322,127.203443 238.957983,127.610335 L248.746218,140.162011 L248.746218,128.698324 C248.746218,128.185286 248.894116,127.773977 249.189916,127.464385 C249.485716,127.154794 249.875628,127 250.359664,127 Z M276.58363,136.190071 C277.669045,136.49551 278.509783,137.052478 279.105872,137.860993 C279.70196,138.669508 280,139.657677 280,140.825532 C280,142.442561 279.426162,143.709215 278.27847,144.625532 C277.130777,145.541849 275.551611,146 273.540925,146 L266.654804,146 C266.138787,146 265.733987,145.856266 265.440391,145.568794 C265.146796,145.281322 265,144.877071 265,144.356028 L265,128.643972 C265,128.122929 265.146796,127.718678 265.440391,127.431206 C265.733987,127.143734 266.138787,127 266.654804,127 L273.274021,127 C275.231327,127 276.766009,127.435693 277.878114,128.307092 C278.990219,129.178491 279.546263,130.395737 279.546263,131.958865 C279.546263,132.965017 279.28381,133.836403 278.758897,134.57305 C278.233983,135.309696 277.508901,135.848698 276.58363,136.190071 Z M268,135 L272.405405,135 C274.801814,135 276,134.162445 276,132.48731 C276,131.641282 275.702706,131.01523 275.108108,130.609137 C274.513511,130.203044 273.612619,130 272.405405,130 L268,130 L268,135 Z M273.585987,143 C274.774953,143 275.641186,142.799681 276.184713,142.399038 C276.728241,141.998395 277,141.373402 277,140.524038 C277,139.674675 276.723994,139.041669 276.171975,138.625 C275.619955,138.208331 274.757968,138 273.585987,138 L269,138 L269,143 L273.585987,143 Z M285.665289,146 C285.146003,146 284.738638,145.856266 284.443182,145.568794 C284.147726,145.281322 284,144.877071 284,144.356028 L284,128.643972 C284,128.122929 284.147726,127.718678 284.443182,127.431206 C284.738638,127.143734 285.146003,127 285.665289,127 L295.36157,127 C295.880857,127 296.283745,127.116784 296.570248,127.350355 C296.856751,127.583926 297,127.91631 297,128.347518 C297,128.796693 296.856751,129.142552 296.570248,129.385106 C296.283745,129.627661 295.880857,129.748936 295.36157,129.748936 L287.384298,129.748936 L287.384298,134.977305 L294.82438,134.977305 C295.343667,134.977305 295.746555,135.094089 296.033058,135.32766 C296.319561,135.56123 296.46281,135.902598 296.46281,136.351773 C296.46281,136.782981 296.319561,137.115365 296.033058,137.348936 C295.746555,137.582507 295.343667,137.699291 294.82438,137.699291 L287.384298,137.699291 L287.384298,143.251064 L295.36157,143.251064 C295.880857,143.251064 296.283745,143.372339 296.570248,143.614894 C296.856751,143.857448 297,144.203307 297,144.652482 C297,145.08369 296.856751,145.416074 296.570248,145.649645 C296.283745,145.883216 295.880857,146 295.36157,146 L285.665289,146 Z M310.620253,146 C310.130799,146 309.738398,145.839664 309.443038,145.518987 C309.147678,145.198311 309,144.779656 309,144.26301 L309,128.630098 C309,128.113453 309.139239,127.712613 309.417722,127.427567 C309.696204,127.142521 310.080166,127 310.56962,127 L319.455696,127 C320.485237,127 321,127.463193 321,128.389592 C321,129.298176 320.485237,129.752461 319.455696,129.752461 L312.21519,129.752461 L312.21519,134.883263 L318.949367,134.883263 C319.978908,134.883263 320.493671,135.346456 320.493671,136.272855 C320.493671,137.181439 319.978908,137.635724 318.949367,137.635724 L312.21519,137.635724 L312.21519,144.26301 C312.21519,144.779656 312.071731,145.198311 311.78481,145.518987 C311.497889,145.839664 311.109707,146 310.620253,146 Z M332.013582,146 C329.38765,146 327.395593,145.339367 326.037351,144.018081 C324.67911,142.696795 324,140.767746 324,138.230876 L324,128.691238 C324,128.180341 324.153932,127.770748 324.4618,127.462448 C324.769668,127.154148 325.186189,127 325.711375,127 C326.236562,127 326.653083,127.154148 326.960951,127.462448 C327.268819,127.770748 327.42275,128.180341 327.42275,128.691238 L327.42275,138.415855 C327.42275,140.019016 327.812107,141.230177 328.590832,142.049374 C329.369557,142.868572 330.510462,143.278164 332.013582,143.278164 C333.498593,143.278164 334.630443,142.864167 335.409168,142.036161 C336.187893,141.208155 336.57725,140.001399 336.57725,138.415855 L336.57725,128.691238 C336.57725,128.180341 336.731181,127.770748 337.039049,127.462448 C337.346917,127.154148 337.763438,127 338.288625,127 C338.813811,127 339.230332,127.154148 339.5382,127.462448 C339.846068,127.770748 340,128.180341 340,128.691238 L340,138.230876 C340,140.750128 339.32089,142.674773 337.962649,144.004868 C336.604407,145.334963 334.621405,146 332.013582,146 Z M358.359664,127 C358.861627,127 359.260503,127.154794 359.556303,127.464385 C359.852102,127.773977 360,128.185286 360,128.698324 L360,144.27514 C360,144.788178 359.847621,145.203909 359.542857,145.522346 C359.238094,145.840784 358.8437,146 358.359664,146 C357.785992,146 357.34678,145.796557 357.042017,145.389665 L347.226891,132.784916 L347.226891,144.27514 C347.226891,144.788178 347.083475,145.203909 346.796639,145.522346 C346.509802,145.840784 346.115409,146 345.613445,146 C345.111482,146 344.717088,145.840784 344.430252,145.522346 C344.143416,145.203909 344,144.788178 344,144.27514 L344,128.698324 C344,128.185286 344.152379,127.773977 344.457143,127.464385 C344.761906,127.154794 345.165264,127 345.667227,127 C346.222972,127 346.65322,127.203443 346.957983,127.610335 L356.746218,140.162011 L356.746218,128.698324 C356.746218,128.185286 356.894116,127.773977 357.189916,127.464385 C357.485716,127.154794 357.875628,127 358.359664,127 Z" id="PAYMENTSCANBEFUN" fill-rule="nonzero"></path>
                <g id="raba_logo_1" transform="translate(0.000000, 30.000000)">
                    <g id="Group">
                        <rect id="Rectangle" x="0" y="0.796116505" width="28.5405405" height="79.6116505" rx="14.2702703"></rect>
                        <path d="M39.6396396,-25.3095426 C47.5539337,-25.3095426 53.9697367,-18.8937395 53.9697367,-10.9794455 L53.9697367,39.6396396 C53.9697367,47.5539337 47.5539337,53.9697367 39.6396396,53.9697367 C31.7253456,53.9697367 25.3095426,47.5539337 25.3095426,39.6396396 L25.3095426,-10.9794455 C25.3095426,-18.8937395 31.7253456,-25.3095426 39.6396396,-25.3095426 Z" id="Rectangle-Copy" transform="translate(39.639640, 14.330097) rotate(90.000000) translate(-39.639640, -14.330097) "></path>
                        <path d="M58.7193835,28.7301517 C66.1527384,28.7152134 72.190773,34.7290283 72.2057113,42.1623832 C72.2057475,42.1804257 72.2057475,42.1984683 72.2057112,42.2165107 L72.1546546,67.5932527 C72.1396211,75.0653364 66.0860336,81.1189098 58.6139499,81.1339259 C51.180595,81.1488642 45.1425603,75.1350493 45.1276221,67.7016944 C45.1275858,67.6836519 45.1275858,67.6656094 45.1276221,67.6475669 L45.1786788,42.270825 C45.1937122,34.7987413 51.2472997,28.7451678 58.7193835,28.7301517 Z" id="Rectangle-Copy-2" transform="translate(58.666667, 54.932039) rotate(127.000000) translate(-58.666667, -54.932039) "></path>
                    </g>
                </g>
            </g>
        </g>
    </g>
</svg>