<?xml version="1.0" encoding="UTF-8"?>
<svg width="316px" height="145px" viewBox="0 0 316 145" version="1.1" xmlns="http://www.w3.org/2000/svg" xmlns:xlink="http://www.w3.org/1999/xlink">
    <!-- Generator: Sketch 56.3 (81716) - https://sketch.com -->
    <title>Group 2</title>
    <desc>Created with Sketch.</desc>
    <g id="Page-2" stroke="none" stroke-width="1" fill="none" fill-rule="evenodd">
        <g id="Desktop" transform="translate(-145.000000, -209.000000)" fill="#FFFFFF">
            <g id="Group-2" transform="translate(101.000000, 209.000000)">
                <path d="M96.1865169,35 C99.2277306,35 102.225453,35.7698188 105.179775,37.3094796 C108.134097,38.8491403 110.740813,41.0266278 113,43.8420074 L104.006742,64.2973978 C101.486879,60.7781732 98.0547034,59.0185874 93.7101124,59.0185874 C89.0179541,59.0185874 85.5206108,60.7121888 83.2179775,64.0994424 C80.9153443,67.486696 79.5902639,73.0073967 79.2426966,80.66171 L79.2426966,106 L55,106 L55,35.6598513 L79.2426966,35.6598513 L79.2426966,41.7304833 C81.5887758,39.6189486 84.2606592,37.9693368 87.258427,36.7815985 C90.2561948,35.5938602 93.232195,35 96.1865169,35 Z M163.578856,105.475046 L163.445407,99.3068392 C161.043316,101.319172 158.062987,102.937763 154.504333,104.162662 C150.945678,105.38756 147.298112,106 143.561525,106 C137.689745,106 132.262879,104.403282 127.280763,101.209797 C122.298646,98.0163118 118.339703,93.7073592 115.403813,88.2828096 C112.467923,82.85826 111,76.9088432 111,70.4343808 C111,63.8724256 112.512405,57.8792631 115.537262,52.4547135 C118.562118,47.0301639 122.721233,42.764957 128.014731,39.6589649 C133.30823,36.5529728 139.15768,35 145.563258,35 C149.032946,35 152.302411,35.5686943 155.37175,36.7060998 C158.44109,37.8435054 160.909869,39.418351 162.778163,41.4306839 L162.778163,35.7874307 L184.930676,35.7874307 L188,105.475046 L163.578856,105.475046 Z M147.433498,85 C149.738928,85 151.955654,84.2922662 154.083744,82.8767773 C156.211833,81.4612883 157.896546,79.5813703 159.137931,77.2369668 C160.379317,74.8925633 161,72.3933782 161,69.7393365 C161,66.1121462 159.825135,63.0821607 157.475369,60.6492891 C155.125604,58.2164175 152.177358,57 148.630542,57 C144.729045,57 141.315286,58.3712343 138.389163,61.1137441 C135.46304,63.8562538 134,67.1295228 134,70.9336493 C134,73.2338188 134.642851,75.4897204 135.928571,77.7014218 C137.214292,79.9131232 138.899004,81.6824578 140.982759,83.0094787 C143.066513,84.3364995 145.216738,85 147.433498,85 Z M241.13073,34.4821648 C245.986442,34.5699061 250.643441,36.3466411 255.101868,39.8124231 C259.560294,43.2782051 263.157881,47.7748801 265.894737,53.302583 C268.631593,58.8302859 270,64.5772559 270,70.5436654 C270,77.0365228 268.675735,83.0905828 266.027165,88.7060271 C263.378595,94.3214713 259.803079,98.7742763 255.300509,102.064576 C250.79794,105.354875 245.942301,107 240.733447,107 C236.495734,107 232.302228,106.25421 228.152801,104.762608 C224.003375,103.271005 220.560285,101.340725 217.82343,98.9717097 L217.82343,106.341943 L192,106.341943 L192,2.10578106 L218.485569,0 L218.220713,40.799508 C224.224139,36.3247009 231.860735,34.2189409 241.13073,34.4821648 Z M232.264151,84 C234.553471,84 236.776719,83.3239943 238.933962,81.9719626 C241.091206,80.6199309 242.80817,78.8535935 244.084906,76.6728972 C245.361642,74.4922009 246,72.2243108 246,69.8691589 C246,66.1183613 244.613221,62.8691726 241.839623,60.1214953 C239.066024,57.373818 235.874232,56 232.264151,56 C228.477968,56 225.154102,57.373818 222.292453,60.1214953 C219.430803,62.8691726 218,66.074748 218,69.7383178 C218,72.0934697 218.682383,74.3831664 220.04717,76.6074766 C221.411957,78.8317868 223.194958,80.6199309 225.396226,81.9719626 C227.597495,83.3239943 229.886781,84 232.264151,84 Z M324.578856,105.475046 L324.445407,99.3068392 C322.043316,101.319172 319.062987,102.937763 315.504333,104.162662 C311.945678,105.38756 308.298112,106 304.561525,106 C298.689745,106 293.262879,104.403282 288.280763,101.209797 C283.298646,98.0163118 279.339703,93.7073592 276.403813,88.2828096 C273.467923,82.85826 272,76.9088432 272,70.4343808 C272,63.8724256 273.512405,57.8792631 276.537262,52.4547135 C279.562118,47.0301639 283.721233,42.764957 289.014731,39.6589649 C294.30823,36.5529728 300.15768,35 306.563258,35 C310.032946,35 313.302411,35.5686943 316.37175,36.7060998 C319.44109,37.8435054 321.909869,39.418351 323.778163,41.4306839 L323.778163,35.7874307 L345.930676,35.7874307 L349,105.475046 L324.578856,105.475046 Z M308.433498,85 C310.738928,85 312.955654,84.2922662 315.083744,82.8767773 C317.211833,81.4612883 318.896546,79.5813703 320.137931,77.2369668 C321.379317,74.8925633 322,72.3933782 322,69.7393365 C322,66.1121462 320.825135,63.0821607 318.475369,60.6492891 C316.125604,58.2164175 313.177358,57 309.630542,57 C305.729045,57 302.315286,58.3712343 299.389163,61.1137441 C296.46304,63.8562538 295,67.1295228 295,70.9336493 C295,73.2338188 295.642851,75.4897204 296.928571,77.7014218 C298.214292,79.9131232 299.899004,81.6824578 301.982759,83.0094787 C304.066513,84.3364995 306.216738,85 308.433498,85 Z" id="raba"></path>
                <path d="M45.6380256,145 C45.1432029,145 44.7464975,144.844118 44.4478976,144.532349 C44.1492977,144.22058 44,143.797471 44,143.26301 L44,127.630098 C44,127.113453 44.1407664,126.712613 44.4223035,126.427567 C44.7038405,126.142521 45.0920146,126 45.5868373,126 L51.8829982,126 C53.8111004,126 55.3126089,126.503277 56.3875686,127.509845 C57.4625282,128.516414 58,129.928261 58,131.745429 C58,133.562597 57.4625282,134.978898 56.3875686,135.994374 C55.3126089,137.00985 53.8111004,137.517581 51.8829982,137.517581 L47.3016453,137.517581 L47.3016453,143.26301 C47.3016453,143.797471 47.1523476,144.22058 46.8537477,144.532349 C46.5551478,144.844118 46.1499112,145 45.6380256,145 Z M51.4054054,135 C53.8018138,135 55,134 55,132 C55,130 53.8018138,129 51.4054054,129 L47,129 L47,135 L51.4054054,135 Z M76.8454936,142.847552 C76.9484984,143.077857 77,143.308157 77,143.538462 C77,143.945923 76.8412033,144.291374 76.5236052,144.574825 C76.206007,144.858276 75.8412038,145 75.4291845,145 C75.1545051,145 74.8969969,144.924709 74.6566524,144.774126 C74.4163078,144.623542 74.2274685,144.388813 74.0901288,144.06993 L72.5450644,140.509091 L63.4806867,140.509091 L61.9356223,144.06993 C61.7982826,144.388813 61.6094433,144.623542 61.3690987,144.774126 C61.1287542,144.924709 60.8626624,145 60.5708155,145 C60.1759637,145 59.8154523,144.858276 59.4892704,144.574825 C59.1630885,144.291374 59,143.945923 59,143.538462 C59,143.308157 59.0515016,143.077857 59.1545064,142.847552 L66.2618026,127.08951 C66.4163098,126.735196 66.6523589,126.465036 66.9699571,126.279021 C67.2875552,126.093006 67.6266076,126 67.9871245,126 C68.3476413,126 68.6866937,126.093006 69.0042918,126.279021 C69.32189,126.465036 69.5579391,126.735196 69.7124464,127.08951 L76.8454936,142.847552 Z M65,138 L72,138 L68.5,130 L65,138 Z M90.3376835,126.583799 C90.6508988,126.194598 91.0250114,126 91.4600326,126 C91.8602521,126 92.2169642,126.154794 92.5301794,126.464385 C92.8433947,126.773977 93,127.141059 93,127.565642 C93,127.919462 92.8694956,128.255585 92.6084829,128.574022 L86.6835237,135.924581 L86.6835237,143.27514 C86.6835237,143.82356 86.5269184,144.248136 86.2137031,144.548883 C85.9004878,144.849629 85.5002743,145 85.0130506,145 C84.508426,145 84.0995122,144.849629 83.7862969,144.548883 C83.4730816,144.248136 83.3164763,143.82356 83.3164763,143.27514 L83.3164763,135.924581 L77.3915171,128.574022 C77.1305044,128.255585 77,127.919462 77,127.565642 C77,127.141059 77.1566053,126.773977 77.4698206,126.464385 C77.7830358,126.154794 78.1397479,126 78.5399674,126 C78.9749886,126 79.3491012,126.194598 79.6623165,126.583799 L85.0130506,133.324022 L90.3376835,126.583799 Z M112.373178,126 C112.862976,126 113.256558,126.154794 113.553936,126.464385 C113.851313,126.773977 114,127.185286 114,127.698324 L114,143.407821 C114,143.903168 113.86006,144.292364 113.580175,144.575419 C113.30029,144.858474 112.932947,145 112.478134,145 C112.023321,145 111.664724,144.858474 111.402332,144.575419 C111.13994,144.292364 111.008746,143.903168 111.008746,143.407821 L111.008746,132.47486 L106.548105,141.019553 C106.338191,141.408754 106.110788,141.696228 105.865889,141.881983 C105.62099,142.067738 105.332363,142.160615 105,142.160615 C104.667637,142.160615 104.37901,142.072161 104.134111,141.895251 C103.889212,141.718342 103.661809,141.426445 103.451895,141.019553 L98.9650146,132.607542 L98.9650146,143.407821 C98.9650146,143.885477 98.8294474,144.27025 98.558309,144.562151 C98.2871707,144.854052 97.9242005,145 97.4693878,145 C97.014575,145 96.655978,144.858474 96.393586,144.575419 C96.131194,144.292364 96,143.903168 96,143.407821 L96,127.698324 C96,127.185286 96.1443134,126.773977 96.4329446,126.464385 C96.7215758,126.154794 97.1107847,126 97.6005831,126 C98.2828022,126 98.8163246,126.38035 99.2011662,127.141061 L105.026239,138.365922 L110.825073,127.141061 C111.209914,126.38035 111.725944,126 112.373178,126 Z M120.665289,145 C120.146003,145 119.738638,144.856266 119.443182,144.568794 C119.147726,144.281322 119,143.877071 119,143.356028 L119,127.643972 C119,127.122929 119.147726,126.718678 119.443182,126.431206 C119.738638,126.143734 120.146003,126 120.665289,126 L130.36157,126 C130.880857,126 131.283745,126.116784 131.570248,126.350355 C131.856751,126.583926 132,126.91631 132,127.347518 C132,127.796693 131.856751,128.142552 131.570248,128.385106 C131.283745,128.627661 130.880857,128.748936 130.36157,128.748936 L122.384298,128.748936 L122.384298,133.977305 L129.82438,133.977305 C130.343667,133.977305 130.746555,134.094089 131.033058,134.32766 C131.319561,134.56123 131.46281,134.902598 131.46281,135.351773 C131.46281,135.782981 131.319561,136.115365 131.033058,136.348936 C130.746555,136.582507 130.343667,136.699291 129.82438,136.699291 L122.384298,136.699291 L122.384298,142.251064 L130.36157,142.251064 C130.880857,142.251064 131.283745,142.372339 131.570248,142.614894 C131.856751,142.857448 132,143.203307 132,143.652482 C132,144.08369 131.856751,144.416074 131.570248,144.649645 C131.283745,144.883216 130.880857,145 130.36157,145 L120.665289,145 Z M149.359664,126 C149.861627,126 150.260503,126.154794 150.556303,126.464385 C150.852102,126.773977 151,127.185286 151,127.698324 L151,143.27514 C151,143.788178 150.847621,144.203909 150.542857,144.522346 C150.238094,144.840784 149.8437,145 149.359664,145 C148.785992,145 148.34678,144.796557 148.042017,144.389665 L138.226891,131.784916 L138.226891,143.27514 C138.226891,143.788178 138.083475,144.203909 137.796639,144.522346 C137.509802,144.840784 137.115409,145 136.613445,145 C136.111482,145 135.717088,144.840784 135.430252,144.522346 C135.143416,144.203909 135,143.788178 135,143.27514 L135,127.698324 C135,127.185286 135.152379,126.773977 135.457143,126.464385 C135.761906,126.154794 136.165264,126 136.667227,126 C137.222972,126 137.65322,126.203443 137.957983,126.610335 L147.746218,139.162011 L147.746218,127.698324 C147.746218,127.185286 147.894116,126.773977 148.189916,126.464385 C148.485716,126.154794 148.875628,126 149.359664,126 Z M162.013051,145 C161.491025,145 161.077761,144.843898 160.773246,144.53169 C160.468731,144.219482 160.316476,143.804697 160.316476,143.287324 L160.316476,128.83662 L155.566069,128.83662 C154.522018,128.83662 154,128.363854 154,127.41831 C154,126.472765 154.522018,126 155.566069,126 L168.433931,126 C169.477982,126 170,126.472765 170,127.41831 C170,128.363854 169.477982,128.83662 168.433931,128.83662 L163.683524,128.83662 L163.683524,143.287324 C163.683524,143.804697 163.531269,144.219482 163.226754,144.53169 C162.922239,144.843898 162.517675,145 162.013051,145 Z M178.567568,145 C177.180173,145 175.869376,144.820426 174.635135,144.461272 C173.400895,144.102119 172.3964,143.615955 171.621622,143.002766 C171.207205,142.704932 171,142.284466 171,141.741355 C171,141.373442 171.112611,141.053713 171.337838,140.782158 C171.563064,140.510603 171.828827,140.374827 172.135135,140.374827 C172.459461,140.374827 172.828827,140.497463 173.243243,140.742739 C174.018022,141.285849 174.828825,141.680036 175.675676,141.925311 C176.522527,142.170587 177.459454,142.293223 178.486486,142.293223 C179.801808,142.293223 180.810807,142.06985 181.513514,141.623098 C182.21622,141.176346 182.567568,140.523748 182.567568,139.665284 C182.567568,138.999536 182.238742,138.487093 181.581081,138.127939 C180.92342,137.768786 179.828836,137.422777 178.297297,137.089903 C176.711704,136.757029 175.423428,136.371602 174.432432,135.93361 C173.441436,135.495618 172.693696,134.934997 172.189189,134.251729 C171.684682,133.568461 171.432432,132.70125 171.432432,131.650069 C171.432432,130.563849 171.747745,129.591521 172.378378,128.733057 C173.009012,127.874592 173.887382,127.204475 175.013514,126.722683 C176.139645,126.240892 177.405398,126 178.810811,126 C181.3874,126 183.486478,126.665738 185.108108,127.997234 C185.342344,128.18995 185.509009,128.378284 185.608108,128.562241 C185.707208,128.746197 185.756757,128.97833 185.756757,129.258645 C185.756757,129.626558 185.644145,129.946287 185.418919,130.217842 C185.193693,130.489397 184.927929,130.625173 184.621622,130.625173 C184.441441,130.625173 184.274776,130.598894 184.121622,130.546335 C183.968468,130.493776 183.765767,130.397419 183.513514,130.257261 C182.774771,129.731671 182.058562,129.341864 181.364865,129.087828 C180.671168,128.833793 179.819825,128.706777 178.810811,128.706777 C177.585579,128.706777 176.617121,128.947669 175.905405,129.429461 C175.19369,129.911252 174.837838,130.58137 174.837838,131.439834 C174.837838,132.158141 175.15315,132.710003 175.783784,133.095436 C176.414418,133.480869 177.486479,133.840017 179,134.172891 C180.603612,134.523284 181.9054,134.913091 182.905405,135.342324 C183.90541,135.771556 184.671169,136.319038 185.202703,136.984786 C185.734237,137.650534 186,138.482706 186,139.481328 C186,140.567548 185.689192,141.526736 185.067568,142.358921 C184.445943,143.191106 183.572078,143.839325 182.445946,144.303596 C181.319814,144.767868 180.027034,145 178.567568,145 Z M205.611584,145 C203.873927,145 202.353499,144.614573 201.050256,143.843707 C199.747012,143.072841 198.74617,141.969117 198.0477,140.532503 C197.34923,139.09589 197,137.414025 197,135.48686 C197,133.559695 197.34923,131.882211 198.0477,130.454357 C198.74617,129.026503 199.747012,127.927159 201.050256,127.156293 C202.353499,126.385427 203.873927,126 205.611584,126 C206.735951,126 207.792159,126.170814 208.780239,126.512448 C209.768318,126.854082 210.645652,127.349006 211.412266,127.997234 C211.633732,128.172431 211.787052,128.356384 211.872232,128.549101 C211.957411,128.741817 212,128.97833 212,129.258645 C212,129.644078 211.897786,129.968187 211.693356,130.230982 C211.488926,130.493777 211.241909,130.625173 210.9523,130.625173 C210.611583,130.625173 210.262353,130.502537 209.9046,130.257261 C209.172058,129.696632 208.490633,129.306825 207.860307,129.087828 C207.22998,128.868832 206.53152,128.759336 205.764906,128.759336 C203.993177,128.759336 202.651623,129.328717 201.740204,130.467497 C200.828786,131.606276 200.373083,133.27938 200.373083,135.48686 C200.373083,137.71186 200.828786,139.393724 201.740204,140.532503 C202.651623,141.671283 203.993177,142.240664 205.764906,142.240664 C206.497448,142.240664 207.174614,142.126788 207.796422,141.899032 C208.418231,141.671276 209.12095,141.285849 209.9046,140.742739 C210.074958,140.63762 210.245314,140.550023 210.415673,140.479945 C210.586032,140.409866 210.764905,140.374827 210.9523,140.374827 C211.241909,140.374827 211.488926,140.506223 211.693356,140.769018 C211.897786,141.031813 212,141.355922 212,141.741355 C212,142.004151 211.957411,142.236283 211.872232,142.437759 C211.787052,142.639236 211.633732,142.827569 211.412266,143.002766 C210.645652,143.650994 209.768318,144.145918 208.780239,144.487552 C207.792159,144.829186 206.735951,145 205.611584,145 Z M232.845494,142.847552 C232.948498,143.077857 233,143.308157 233,143.538462 C233,143.945923 232.841203,144.291374 232.523605,144.574825 C232.206007,144.858276 231.841204,145 231.429185,145 C231.154505,145 230.896997,144.924709 230.656652,144.774126 C230.416308,144.623542 230.227468,144.388813 230.090129,144.06993 L228.545064,140.509091 L219.480687,140.509091 L217.935622,144.06993 C217.798283,144.388813 217.609443,144.623542 217.369099,144.774126 C217.128754,144.924709 216.862662,145 216.570815,145 C216.175964,145 215.815452,144.858276 215.48927,144.574825 C215.163088,144.291374 215,143.945923 215,143.538462 C215,143.308157 215.051502,143.077857 215.154506,142.847552 L222.261803,127.08951 C222.41631,126.735196 222.652359,126.465036 222.969957,126.279021 C223.287555,126.093006 223.626608,126 223.987124,126 C224.347641,126 224.686694,126.093006 225.004292,126.279021 C225.32189,126.465036 225.557939,126.735196 225.712446,127.08951 L232.845494,142.847552 Z M220,138 L227,138 L223.5,130 L220,138 Z M250.359664,126 C250.861627,126 251.260503,126.154794 251.556303,126.464385 C251.852102,126.773977 252,127.185286 252,127.698324 L252,143.27514 C252,143.788178 251.847621,144.203909 251.542857,144.522346 C251.238094,144.840784 250.8437,145 250.359664,145 C249.785992,145 249.34678,144.796557 249.042017,144.389665 L239.226891,131.784916 L239.226891,143.27514 C239.226891,143.788178 239.083475,144.203909 238.796639,144.522346 C238.509802,144.840784 238.115409,145 237.613445,145 C237.111482,145 236.717088,144.840784 236.430252,144.522346 C236.143416,144.203909 236,143.788178 236,143.27514 L236,127.698324 C236,127.185286 236.152379,126.773977 236.457143,126.464385 C236.761906,126.154794 237.165264,126 237.667227,126 C238.222972,126 238.65322,126.203443 238.957983,126.610335 L248.746218,139.162011 L248.746218,127.698324 C248.746218,127.185286 248.894116,126.773977 249.189916,126.464385 C249.485716,126.154794 249.875628,126 250.359664,126 Z M276.58363,135.190071 C277.669045,135.49551 278.509783,136.052478 279.105872,136.860993 C279.70196,137.669508 280,138.657677 280,139.825532 C280,141.442561 279.426162,142.709215 278.27847,143.625532 C277.130777,144.541849 275.551611,145 273.540925,145 L266.654804,145 C266.138787,145 265.733987,144.856266 265.440391,144.568794 C265.146796,144.281322 265,143.877071 265,143.356028 L265,127.643972 C265,127.122929 265.146796,126.718678 265.440391,126.431206 C265.733987,126.143734 266.138787,126 266.654804,126 L273.274021,126 C275.231327,126 276.766009,126.435693 277.878114,127.307092 C278.990219,128.178491 279.546263,129.395737 279.546263,130.958865 C279.546263,131.965017 279.28381,132.836403 278.758897,133.57305 C278.233983,134.309696 277.508901,134.848698 276.58363,135.190071 Z M268,134 L272.405405,134 C274.801814,134 276,133.162445 276,131.48731 C276,130.641282 275.702706,130.01523 275.108108,129.609137 C274.513511,129.203044 273.612619,129 272.405405,129 L268,129 L268,134 Z M273.585987,142 C274.774953,142 275.641186,141.799681 276.184713,141.399038 C276.728241,140.998395 277,140.373402 277,139.524038 C277,138.674675 276.723994,138.041669 276.171975,137.625 C275.619955,137.208331 274.757968,137 273.585987,137 L269,137 L269,142 L273.585987,142 Z M285.665289,145 C285.146003,145 284.738638,144.856266 284.443182,144.568794 C284.147726,144.281322 284,143.877071 284,143.356028 L284,127.643972 C284,127.122929 284.147726,126.718678 284.443182,126.431206 C284.738638,126.143734 285.146003,126 285.665289,126 L295.36157,126 C295.880857,126 296.283745,126.116784 296.570248,126.350355 C296.856751,126.583926 297,126.91631 297,127.347518 C297,127.796693 296.856751,128.142552 296.570248,128.385106 C296.283745,128.627661 295.880857,128.748936 295.36157,128.748936 L287.384298,128.748936 L287.384298,133.977305 L294.82438,133.977305 C295.343667,133.977305 295.746555,134.094089 296.033058,134.32766 C296.319561,134.56123 296.46281,134.902598 296.46281,135.351773 C296.46281,135.782981 296.319561,136.115365 296.033058,136.348936 C295.746555,136.582507 295.343667,136.699291 294.82438,136.699291 L287.384298,136.699291 L287.384298,142.251064 L295.36157,142.251064 C295.880857,142.251064 296.283745,142.372339 296.570248,142.614894 C296.856751,142.857448 297,143.203307 297,143.652482 C297,144.08369 296.856751,144.416074 296.570248,144.649645 C296.283745,144.883216 295.880857,145 295.36157,145 L285.665289,145 Z M310.620253,145 C310.130799,145 309.738398,144.839664 309.443038,144.518987 C309.147678,144.198311 309,143.779656 309,143.26301 L309,127.630098 C309,127.113453 309.139239,126.712613 309.417722,126.427567 C309.696204,126.142521 310.080166,126 310.56962,126 L319.455696,126 C320.485237,126 321,126.463193 321,127.389592 C321,128.298176 320.485237,128.752461 319.455696,128.752461 L312.21519,128.752461 L312.21519,133.883263 L318.949367,133.883263 C319.978908,133.883263 320.493671,134.346456 320.493671,135.272855 C320.493671,136.181439 319.978908,136.635724 318.949367,136.635724 L312.21519,136.635724 L312.21519,143.26301 C312.21519,143.779656 312.071731,144.198311 311.78481,144.518987 C311.497889,144.839664 311.109707,145 310.620253,145 Z M332.013582,145 C329.38765,145 327.395593,144.339367 326.037351,143.018081 C324.67911,141.696795 324,139.767746 324,137.230876 L324,127.691238 C324,127.180341 324.153932,126.770748 324.4618,126.462448 C324.769668,126.154148 325.186189,126 325.711375,126 C326.236562,126 326.653083,126.154148 326.960951,126.462448 C327.268819,126.770748 327.42275,127.180341 327.42275,127.691238 L327.42275,137.415855 C327.42275,139.019016 327.812107,140.230177 328.590832,141.049374 C329.369557,141.868572 330.510462,142.278164 332.013582,142.278164 C333.498593,142.278164 334.630443,141.864167 335.409168,141.036161 C336.187893,140.208155 336.57725,139.001399 336.57725,137.415855 L336.57725,127.691238 C336.57725,127.180341 336.731181,126.770748 337.039049,126.462448 C337.346917,126.154148 337.763438,126 338.288625,126 C338.813811,126 339.230332,126.154148 339.5382,126.462448 C339.846068,126.770748 340,127.180341 340,127.691238 L340,137.230876 C340,139.750128 339.32089,141.674773 337.962649,143.004868 C336.604407,144.334963 334.621405,145 332.013582,145 Z M358.359664,126 C358.861627,126 359.260503,126.154794 359.556303,126.464385 C359.852102,126.773977 360,127.185286 360,127.698324 L360,143.27514 C360,143.788178 359.847621,144.203909 359.542857,144.522346 C359.238094,144.840784 358.8437,145 358.359664,145 C357.785992,145 357.34678,144.796557 357.042017,144.389665 L347.226891,131.784916 L347.226891,143.27514 C347.226891,143.788178 347.083475,144.203909 346.796639,144.522346 C346.509802,144.840784 346.115409,145 345.613445,145 C345.111482,145 344.717088,144.840784 344.430252,144.522346 C344.143416,144.203909 344,143.788178 344,143.27514 L344,127.698324 C344,127.185286 344.152379,126.773977 344.457143,126.464385 C344.761906,126.154794 345.165264,126 345.667227,126 C346.222972,126 346.65322,126.203443 346.957983,126.610335 L356.746218,139.162011 L356.746218,127.698324 C356.746218,127.185286 356.894116,126.773977 357.189916,126.464385 C357.485716,126.154794 357.875628,126 358.359664,126 Z" id="PAYMENTSCANBEFUN" fill-rule="nonzero"></path>
            </g>
        </g>
    </g>
</svg>