<?xml version="1.0" encoding="UTF-8"?>
<svg width="336px" height="107px" viewBox="0 0 336 107" version="1.1" xmlns="http://www.w3.org/2000/svg" xmlns:xlink="http://www.w3.org/1999/xlink">
    <!-- Generator: Sketch 56.3 (81716) - https://sketch.com -->
    <title>Group 2</title>
    <desc>Created with Sketch.</desc>
    <g id="Page-2" stroke="none" stroke-width="1" fill="none" fill-rule="evenodd">
        <g id="Desktop" transform="translate(-141.000000, -207.000000)" fill="#FFFFFF">
            <g id="Group-2" transform="translate(42.000000, 207.000000)">
                <path d="M140.186517,35 C143.227731,35 146.225453,35.7698188 149.179775,37.3094796 C152.134097,38.8491403 154.740813,41.0266278 157,43.8420074 L148.006742,64.2973978 C145.486879,60.7781732 142.054703,59.0185874 137.710112,59.0185874 C133.017954,59.0185874 129.520611,60.7121888 127.217978,64.0994424 C124.915344,67.486696 123.590264,73.0073967 123.242697,80.66171 L123.242697,106 L99,106 L99,35.6598513 L123.242697,35.6598513 L123.242697,41.7304833 C125.588776,39.6189486 128.260659,37.9693368 131.258427,36.7815985 C134.256195,35.5938602 137.232195,35 140.186517,35 Z M207.578856,105.475046 L207.445407,99.3068392 C205.043316,101.319172 202.062987,102.937763 198.504333,104.162662 C194.945678,105.38756 191.298112,106 187.561525,106 C181.689745,106 176.262879,104.403282 171.280763,101.209797 C166.298646,98.0163118 162.339703,93.7073592 159.403813,88.2828096 C156.467923,82.85826 155,76.9088432 155,70.4343808 C155,63.8724256 156.512405,57.8792631 159.537262,52.4547135 C162.562118,47.0301639 166.721233,42.764957 172.014731,39.6589649 C177.30823,36.5529728 183.15768,35 189.563258,35 C193.032946,35 196.302411,35.5686943 199.37175,36.7060998 C202.44109,37.8435054 204.909869,39.418351 206.778163,41.4306839 L206.778163,35.7874307 L228.930676,35.7874307 L232,105.475046 L207.578856,105.475046 Z M191.433498,85 C193.738928,85 195.955654,84.2922662 198.083744,82.8767773 C200.211833,81.4612883 201.896546,79.5813703 203.137931,77.2369668 C204.379317,74.8925633 205,72.3933782 205,69.7393365 C205,66.1121462 203.825135,63.0821607 201.475369,60.6492891 C199.125604,58.2164175 196.177358,57 192.630542,57 C188.729045,57 185.315286,58.3712343 182.389163,61.1137441 C179.46304,63.8562538 178,67.1295228 178,70.9336493 C178,73.2338188 178.642851,75.4897204 179.928571,77.7014218 C181.214292,79.9131232 182.899004,81.6824578 184.982759,83.0094787 C187.066513,84.3364995 189.216738,85 191.433498,85 Z M285.13073,34.4821648 C289.986442,34.5699061 294.643441,36.3466411 299.101868,39.8124231 C303.560294,43.2782051 307.157881,47.7748801 309.894737,53.302583 C312.631593,58.8302859 314,64.5772559 314,70.5436654 C314,77.0365228 312.675735,83.0905828 310.027165,88.7060271 C307.378595,94.3214713 303.803079,98.7742763 299.300509,102.064576 C294.79794,105.354875 289.942301,107 284.733447,107 C280.495734,107 276.302228,106.25421 272.152801,104.762608 C268.003375,103.271005 264.560285,101.340725 261.82343,98.9717097 L261.82343,106.341943 L236,106.341943 L236,2.10578106 L262.485569,0 L262.220713,40.799508 C268.224139,36.3247009 275.860735,34.2189409 285.13073,34.4821648 Z M276.264151,84 C278.553471,84 280.776719,83.3239943 282.933962,81.9719626 C285.091206,80.6199309 286.80817,78.8535935 288.084906,76.6728972 C289.361642,74.4922009 290,72.2243108 290,69.8691589 C290,66.1183613 288.613221,62.8691726 285.839623,60.1214953 C283.066024,57.373818 279.874232,56 276.264151,56 C272.477968,56 269.154102,57.373818 266.292453,60.1214953 C263.430803,62.8691726 262,66.074748 262,69.7383178 C262,72.0934697 262.682383,74.3831664 264.04717,76.6074766 C265.411957,78.8317868 267.194958,80.6199309 269.396226,81.9719626 C271.597495,83.3239943 273.886781,84 276.264151,84 Z M368.578856,105.475046 L368.445407,99.3068392 C366.043316,101.319172 363.062987,102.937763 359.504333,104.162662 C355.945678,105.38756 352.298112,106 348.561525,106 C342.689745,106 337.262879,104.403282 332.280763,101.209797 C327.298646,98.0163118 323.339703,93.7073592 320.403813,88.2828096 C317.467923,82.85826 316,76.9088432 316,70.4343808 C316,63.8724256 317.512405,57.8792631 320.537262,52.4547135 C323.562118,47.0301639 327.721233,42.764957 333.014731,39.6589649 C338.30823,36.5529728 344.15768,35 350.563258,35 C354.032946,35 357.302411,35.5686943 360.37175,36.7060998 C363.44109,37.8435054 365.909869,39.418351 367.778163,41.4306839 L367.778163,35.7874307 L389.930676,35.7874307 L393,105.475046 L368.578856,105.475046 Z M352.433498,85 C354.738928,85 356.955654,84.2922662 359.083744,82.8767773 C361.211833,81.4612883 362.896546,79.5813703 364.137931,77.2369668 C365.379317,74.8925633 366,72.3933782 366,69.7393365 C366,66.1121462 364.825135,63.0821607 362.475369,60.6492891 C360.125604,58.2164175 357.177358,57 353.630542,57 C349.729045,57 346.315286,58.3712343 343.389163,61.1137441 C340.46304,63.8562538 339,67.1295228 339,70.9336493 C339,73.2338188 339.642851,75.4897204 340.928571,77.7014218 C342.214292,79.9131232 343.899004,81.6824578 345.982759,83.0094787 C348.066513,84.3364995 350.216738,85 352.433498,85 Z" id="raba"></path>
                <circle id="Oval" cx="420" cy="92" r="15"></circle>
            </g>
        </g>
    </g>
</svg>