<?xml version="1.0" encoding="UTF-8"?>
<svg width="1169px" height="874px" viewBox="0 0 1169 874" version="1.1" xmlns="http://www.w3.org/2000/svg" xmlns:xlink="http://www.w3.org/1999/xlink">
    <!-- Generator: Sketch 56.3 (81716) - https://sketch.com -->
    <title>Mesa de trabajo 1 copia</title>
    <desc>Created with Sketch.</desc>
    <g id="Page-1" stroke="none" stroke-width="1" fill="none" fill-rule="evenodd">
        <g id="Mesa-de-trabajo-1-copia" transform="translate(-50.000000, -20.000000)">
            <rect id="Rectangle" x="173" y="397" width="750" height="500"></rect>
            <g id="Group">
                <path d="M635.79,43.78 C630.79,63.48 632.41,85.59 643.95,102.31 C656.95,121.15 679.95,130.31 702.14,135.84 C760.35,150.43 821.84,147.6 880.06,162.15 C916.47,171.25 955.3,191.83 964.12,228.31 C973.28,266.2 946.26,303.36 944.04,342.31 C942.14,375.77 959.52,408.57 985.27,430.02 C1011.02,451.47 1044.22,462.49 1077.51,466.28 C1083.28646,466.941703 1089.09577,467.275571 1094.91,467.28 L1094.91,43.78 L635.79,43.78 Z" id="Path"></path>
                <path d="M153.9,317 C155.178187,322.508718 155.825681,328.144939 155.82999,333.8 C155.840613,353.543421 148.004324,372.48169 134.046428,386.445212 C120.088533,400.408734 101.153424,408.252656 81.41,408.25 C40.3144918,408.25 7,374.935508 7,333.84 C7.00119551,328.171557 7.64871088,322.521734 8.93,317 L2.08,317 C0.915587608,322.524151 0.32999012,328.154462 0.32999012,333.8 C0.319388612,355.311602 8.8567173,375.945923 24.0630296,391.161612 C39.2693418,406.377302 59.8983953,414.92735 81.41,414.93 C102.916405,414.93 123.541964,406.386614 138.749289,391.179289 C153.956614,375.971964 162.500017,355.346405 162.500017,333.84 C162.503681,328.181093 161.917175,322.537232 160.75,317 L153.9,317 Z" id="Path"></path>
                <path d="M247,890.37 C247,892.59 246.88,894.78 246.69,896.95 L253.38,896.95 C253.55,894.78 253.67,892.59 253.67,890.37 C253.67,863.46141 240.322601,838.305177 218.040216,823.219836 C195.757831,808.134495 167.443477,805.085097 142.46,815.08 L142.46,822.32 C165.477026,812.12697 192.087061,814.262344 213.184092,827.995393 C234.281122,841.728443 247.004403,865.196972 247,890.37 L247,890.37 Z" id="Path"></path>
                <path d="M883.77,382.47 C884.098394,385.301542 884.265331,388.149482 884.27,391 C884.27,432.095508 850.955508,465.41 809.86,465.41 C790.123508,465.412652 771.194465,457.574221 757.23772,443.619351 C743.280975,429.664482 735.44,410.736492 735.44,391 C735.444713,388.149484 735.611649,385.301546 735.94,382.47 L729.21,382.47 C728.915248,385.303759 728.769987,388.150954 728.769987,391 C728.769987,435.78477 765.07523,472.09 809.86,472.09 C854.640865,472.084478 890.94,435.780865 890.94,391 C890.938296,388.15078 890.788092,385.303584 890.49,382.47 L883.77,382.47 Z" id="Path"></path>
                <path d="M729.25,632.26 L674.47,687.05" id="Path" stroke="#9CECDF" stroke-width="3" stroke-linecap="round" stroke-linejoin="round"></path>
                <path d="M776.65,596.53 L721.86,651.32" id="Path" stroke="#9CECDF" stroke-width="3" stroke-linecap="round" stroke-linejoin="round"></path>
                <path d="M301.75,715.68 L246.97,770.47" id="Path" stroke="#9CECDF" stroke-width="3" stroke-linecap="round" stroke-linejoin="round"></path>
                <path d="M369.1,668.9 L314.31,723.69" id="Path" stroke="#9CECDF" stroke-width="3" stroke-linecap="round" stroke-linejoin="round"></path>
                <path d="M672.63,543.19 L617.84,597.97" id="Path" stroke="#9CECDF" stroke-width="3" stroke-linecap="round" stroke-linejoin="round"></path>
                <path d="M446.49,824.51 L391.7,879.3" id="Path" stroke="#9CECDF" stroke-width="3" stroke-linecap="round" stroke-linejoin="round"></path>
                <path d="M391.24,853 C377.53,865 365.53,879 352.67,891.57" id="Path" stroke="#9CECDF" stroke-width="3" stroke-linecap="round" stroke-linejoin="round"></path>
                <path d="M692.11,512 L637.33,566.78" id="Path" stroke="#9CECDF" stroke-width="3" stroke-linecap="round" stroke-linejoin="round"></path>
                <g id="Group-3" transform="translate(617.840000, 512.000000)" stroke="#9CECDF" stroke-linecap="round" stroke-linejoin="round" stroke-width="3">
                    <path d="M54.79,31.19 L-2.84217094e-14,85.97" id="Path-Copy-2"></path>
                    <path d="M74.27,-1.42108547e-14 L19.49,54.78" id="Path-Copy"></path>
                </g>
                <g id="Group-3-Copy" transform="translate(1117.840000, 692.000000)" stroke="#9CECDF" stroke-linecap="round" stroke-linejoin="round" stroke-width="3">
                    <path d="M54.79,31.19 L-2.84217094e-14,85.97" id="Path-Copy-2"></path>
                    <path d="M74.27,-1.42108547e-14 L19.49,54.78" id="Path-Copy"></path>
                </g>
                <g id="Group-2" transform="translate(52.000000, 364.000000)">
                    <circle id="Oval" cx="140.02" cy="231.09" r="2.73"></circle>
                    <circle id="Oval" cx="456.36" cy="162.01" r="2.73"></circle>
                    <circle id="Oval" cx="373.82" cy="394.62" r="2.73"></circle>
                    <circle id="Oval" cx="355.29" cy="308.55" r="11.17"></circle>
                    <circle id="Oval" cx="533.03" cy="289.55" r="11.17"></circle>
                    <circle id="Oval" cx="306.65" cy="389.05" r="11.17"></circle>
                    <circle id="Oval" stroke="#FFD25B" stroke-width="3" cx="106.47" cy="223.55" r="11.17"></circle>
                    <circle id="Oval" stroke="#0EB3F3" stroke-width="3" cx="447.03" cy="393.62" r="11.17"></circle>
                    <circle id="Oval" stroke="#FFD25B" stroke-width="3" cx="533.03" cy="93.45" r="11.17"></circle>
                    <circle id="Oval" cx="127.28" cy="27.07" r="12.07"></circle>
                    <polygon id="Path" points="464.43 309.29 454.58 309.29 454.58 299.44 444.27 299.44 444.27 309.29 434.41 309.29 434.41 319.61 444.27 319.61 444.27 329.46 454.58 329.46 454.58 319.61 464.43 319.61"></polygon>
                    <polygon id="Path" fill="#D8D8D8" points="286.53 158.06 286.53 148.2 276.22 148.2 276.22 158.06 266.36 158.06 266.36 168.37 276.22 168.37 276.22 178.22 286.53 178.22 286.53 168.37 296.38 168.37 296.38 158.06"></polygon>
                    <polygon id="Path" points="457.19 9.85 447.34 9.85 447.34 -8.8817842e-15 437.03 -8.8817842e-15 437.03 9.85 427.17 9.85 427.17 20.16 437.03 20.16 437.03 30.02 447.34 30.02 447.34 20.16 457.19 20.16"></polygon>
                    <path d="M176.61,276.77 C142.699716,276.77 115.21,304.259716 115.21,338.17 C115.21,372.080284 142.699716,399.57 176.61,399.57 C210.520284,399.57 238.01,372.080284 238.01,338.17 C238.01,304.259716 210.520284,276.77 176.61,276.77 Z M176.61,374.77 C156.403203,374.77 140.021842,358.390129 140.020002,338.183332 C140.018161,317.976535 156.396538,301.593682 176.603335,301.59 C196.810132,301.586319 213.194478,317.963204 213.2,338.17 C213.2,347.874271 209.344993,357.181081 202.483037,364.043037 C195.621081,370.904993 186.314271,374.76 176.61,374.76 L176.61,374.77 Z" id="Shape"></path>
                    <polygon id="Path" stroke="#9CECDF" stroke-width="1.99276" points="62.31 26.44 5.2 41.75 47.01 83.56"></polygon>
                    <polygon id="Path" stroke="#FFFFFF" stroke-width="1.99276" points="57.11 10.22 7.10542736e-15 25.53 41.81 67.33"></polygon>
                    <polygon id="Path" stroke="#9CECDF" stroke-width="1.3267" points="400.72 348.56 362.7 358.75 390.53 386.58"></polygon>
                    <polygon id="Path" stroke="#FFFFFF" stroke-width="1.3267" points="397.26 337.76 359.24 347.94 387.07 375.78"></polygon>
                </g>
                <g id="Group-2-Copy-3" transform="translate(988.382812, 560.264782) rotate(-131.000000) translate(-988.382812, -560.264782) translate(715.882812, 357.764782)">
                    <circle id="Oval" cx="140.02" cy="231.09" r="2.73"></circle>
                    <circle id="Oval" cx="456.36" cy="162.01" r="2.73"></circle>
                    <circle id="Oval" cx="373.82" cy="394.62" r="2.73"></circle>
                    <circle id="Oval" cx="355.29" cy="308.55" r="11.17"></circle>
                    <circle id="Oval" cx="533.03" cy="289.55" r="11.17"></circle>
                    <circle id="Oval" cx="306.65" cy="389.05" r="11.17"></circle>
                    <circle id="Oval" stroke="#FFD25B" stroke-width="3" cx="106.47" cy="223.55" r="11.17"></circle>
                    <circle id="Oval" stroke="#0EB3F3" stroke-width="3" cx="447.03" cy="393.62" r="11.17"></circle>
                    <circle id="Oval" stroke="#FFD25B" stroke-width="3" cx="533.03" cy="93.45" r="11.17"></circle>
                    <circle id="Oval" cx="127.28" cy="27.07" r="12.07"></circle>
                    <polygon id="Path" points="464.43 309.29 454.58 309.29 454.58 299.44 444.27 299.44 444.27 309.29 434.41 309.29 434.41 319.61 444.27 319.61 444.27 329.46 454.58 329.46 454.58 319.61 464.43 319.61"></polygon>
                    <polygon id="Path" fill="#D8D8D8" points="286.53 158.06 286.53 148.2 276.22 148.2 276.22 158.06 266.36 158.06 266.36 168.37 276.22 168.37 276.22 178.22 286.53 178.22 286.53 168.37 296.38 168.37 296.38 158.06"></polygon>
                    <polygon id="Path" points="457.19 9.85 447.34 9.85 447.34 -8.8817842e-15 437.03 -8.8817842e-15 437.03 9.85 427.17 9.85 427.17 20.16 437.03 20.16 437.03 30.02 447.34 30.02 447.34 20.16 457.19 20.16"></polygon>
                    <path d="M176.61,276.77 C142.699716,276.77 115.21,304.259716 115.21,338.17 C115.21,372.080284 142.699716,399.57 176.61,399.57 C210.520284,399.57 238.01,372.080284 238.01,338.17 C238.01,304.259716 210.520284,276.77 176.61,276.77 Z M176.61,374.77 C156.403203,374.77 140.021842,358.390129 140.020002,338.183332 C140.018161,317.976535 156.396538,301.593682 176.603335,301.59 C196.810132,301.586319 213.194478,317.963204 213.2,338.17 C213.2,347.874271 209.344993,357.181081 202.483037,364.043037 C195.621081,370.904993 186.314271,374.76 176.61,374.76 L176.61,374.77 Z" id="Shape"></path>
                    <polygon id="Path" stroke="#9CECDF" stroke-width="1.99276" points="62.31 26.44 5.2 41.75 47.01 83.56"></polygon>
                    <polygon id="Path" stroke="#FFFFFF" stroke-width="1.99276" points="57.11 10.22 7.10542736e-15 25.53 41.81 67.33"></polygon>
                    <polygon id="Path" stroke="#9CECDF" stroke-width="1.3267" points="400.72 348.56 362.7 358.75 390.53 386.58"></polygon>
                    <polygon id="Path" stroke="#FFFFFF" stroke-width="1.3267" points="397.26 337.76 359.24 347.94 387.07 375.78"></polygon>
                </g>
                <g id="Group-2-Copy" transform="translate(673.000000, 42.000000)">
                    <circle id="Oval" cx="140.02" cy="231.09" r="2.73"></circle>
                    <circle id="Oval" cx="456.36" cy="162.01" r="2.73"></circle>
                    <circle id="Oval" cx="373.82" cy="394.62" r="2.73"></circle>
                    <circle id="Oval" cx="355.29" cy="308.55" r="11.17"></circle>
                    <circle id="Oval" cx="533.03" cy="289.55" r="11.17"></circle>
                    <circle id="Oval" cx="306.65" cy="389.05" r="11.17"></circle>
                    <circle id="Oval" stroke="#FFD25B" stroke-width="3" cx="106.47" cy="223.55" r="11.17"></circle>
                    <circle id="Oval" stroke="#0EB3F3" stroke-width="3" cx="447.03" cy="393.62" r="11.17"></circle>
                    <circle id="Oval" stroke="#FFD25B" stroke-width="3" cx="533.03" cy="93.45" r="11.17"></circle>
                    <circle id="Oval" cx="127.28" cy="27.07" r="12.07"></circle>
                    <polygon id="Path" points="464.43 309.29 454.58 309.29 454.58 299.44 444.27 299.44 444.27 309.29 434.41 309.29 434.41 319.61 444.27 319.61 444.27 329.46 454.58 329.46 454.58 319.61 464.43 319.61"></polygon>
                    <polygon id="Path" fill="#D8D8D8" points="286.53 158.06 286.53 148.2 276.22 148.2 276.22 158.06 266.36 158.06 266.36 168.37 276.22 168.37 276.22 178.22 286.53 178.22 286.53 168.37 296.38 168.37 296.38 158.06"></polygon>
                    <polygon id="Path" points="457.19 9.85 447.34 9.85 447.34 -8.8817842e-15 437.03 -8.8817842e-15 437.03 9.85 427.17 9.85 427.17 20.16 437.03 20.16 437.03 30.02 447.34 30.02 447.34 20.16 457.19 20.16"></polygon>
                    <path d="M176.61,276.77 C142.699716,276.77 115.21,304.259716 115.21,338.17 C115.21,372.080284 142.699716,399.57 176.61,399.57 C210.520284,399.57 238.01,372.080284 238.01,338.17 C238.01,304.259716 210.520284,276.77 176.61,276.77 Z M176.61,374.77 C156.403203,374.77 140.021842,358.390129 140.020002,338.183332 C140.018161,317.976535 156.396538,301.593682 176.603335,301.59 C196.810132,301.586319 213.194478,317.963204 213.2,338.17 C213.2,347.874271 209.344993,357.181081 202.483037,364.043037 C195.621081,370.904993 186.314271,374.76 176.61,374.76 L176.61,374.77 Z" id="Shape"></path>
                    <polygon id="Path" stroke="#9CECDF" stroke-width="1.99276" points="62.31 26.44 5.2 41.75 47.01 83.56"></polygon>
                    <polygon id="Path" stroke="#FFFFFF" stroke-width="1.99276" points="57.11 10.22 7.10542736e-15 25.53 41.81 67.33"></polygon>
                    <polygon id="Path" stroke="#9CECDF" stroke-width="1.3267" points="400.72 348.56 362.7 358.75 390.53 386.58"></polygon>
                    <polygon id="Path" stroke="#FFFFFF" stroke-width="1.3267" points="397.26 337.76 359.24 347.94 387.07 375.78"></polygon>
                </g>
                <g id="Group-2-Copy-2" transform="translate(390.000000, 186.500000) rotate(-161.000000) translate(-390.000000, -186.500000) translate(210.000000, 52.000000)">
                    <circle id="Oval" cx="92.845464" cy="153.616052" r="2"></circle>
                    <circle id="Oval" cx="301.434606" cy="108.233568" r="2"></circle>
                    <circle id="Oval" cx="247.284385" cy="261.19681" r="2"></circle>
                    <circle id="Oval" cx="234.710087" cy="204.713299" r="7.5"></circle>
                    <circle id="Oval" cx="351.909495" cy="191.856444" r="7.5"></circle>
                    <circle id="Oval" cx="203.29344" cy="257.835745" r="7.5"></circle>
                    <circle id="Oval" stroke="#0EB3F3" stroke-width="3" cx="295.351787" cy="261.038997" r="7.5"></circle>
                    <circle id="Oval" stroke="#FFD25B" stroke-width="3" cx="351.901961" cy="62.8293157" r="7.5"></circle>
                    <circle id="Oval" cx="84.5602726" cy="18.9781835" r="8"></circle>
                    <polygon id="Path" points="306.728257 204.775109 300.165965 204.775109 300.165965 198.212817 293.297211 198.212817 293.297211 204.775109 286.728257 204.775109 286.728257 211.650525 293.297211 211.650525 293.297211 218.212817 300.165965 218.212817 300.165965 211.650525 306.728257 211.650525"></polygon>
                    <polygon id="Path" fill="#D8D8D8" points="189.764768 105.305263 189.764768 98.7363091 182.896013 98.7363091 182.896013 105.305263 176.327059 105.305263 176.327059 112.174017 182.896013 112.174017 182.896013 118.736309 189.764768 118.736309 189.764768 112.174017 196.327059 112.174017 196.327059 105.305263"></polygon>
                    <polygon id="Path" points="302.252558 7.48352713 295.690267 7.48352713 295.690267 0.921235327 288.821512 0.921235327 288.821512 7.48352713 282.252558 7.48352713 282.252558 14.3522813 288.821512 14.3522813 288.821512 20.9212353 295.690267 20.9212353 295.690267 14.3522813 302.252558 14.3522813"></polygon>
                    <path d="M117.573051,183.394402 C95.2055184,183.394402 77.0730507,201.526869 77.0730507,223.894402 C77.0730507,246.261934 95.2055184,264.394402 117.573051,264.394402 C139.940583,264.394402 158.073051,246.261934 158.073051,223.894402 C158.073051,201.526869 139.940583,183.394402 117.573051,183.394402 Z M117.573051,248.036096 C104.244463,248.036096 93.4391679,237.231784 93.437954,223.903196 C93.4367401,210.574608 104.240067,199.768329 117.568655,199.7659 C130.897242,199.763472 141.704506,210.565815 141.708148,223.894402 C141.708148,230.295428 139.165351,236.434284 134.639142,240.960493 C130.112933,245.486702 123.974077,248.029499 117.573051,248.029499 L117.573051,248.036096 Z" id="Shape"></path>
                    <polygon id="Path" stroke="#9CECDF" stroke-width="1.99276" points="42.0703793 17.9779897 4.07037929 28.1632138 31.8900256 55.9779897"></polygon>
                    <polygon id="Path" stroke="#FFFFFF" stroke-width="1.99276" points="38.4891296 7.57728535 0.489129594 17.7642929 28.3087759 45.5772854"></polygon>
                    <polygon id="Path" stroke="#9CECDF" stroke-width="1.3267" points="264.666024 230.622807 239.666024 237.323228 257.965603 255.622807"></polygon>
                    <polygon id="Path" stroke="#FFFFFF" stroke-width="1.3267" points="262.387047 224.004177 237.387047 230.698022 255.686626 249.004177"></polygon>
                </g>
            </g>
        </g>
    </g>
</svg>