<?xml version="1.0" encoding="UTF-8"?>
<svg width="28px" height="28px" viewBox="0 0 28 28" version="1.1" xmlns="http://www.w3.org/2000/svg" xmlns:xlink="http://www.w3.org/1999/xlink">
    <!-- Generator: Sketch 56.3 (81716) - https://sketch.com -->
    <title>noun_User_2906555</title>
    <desc>Created with Sketch.</desc>
    <g id="Page-1" stroke="none" stroke-width="1" fill="none" fill-rule="evenodd">
        <g id="noun_User_2906555" transform="translate(-1.000000, -1.000000)" fill="#BFBFBF" fill-rule="nonzero">
            <path d="M22,25 L22,27.12 C17.6683849,29.6208591 12.3316151,29.6208591 8,27.12 L8,25 C8,21.1340068 11.1340068,18 15,18 C18.8659932,18 22,21.1340068 22,25 L22,25 Z M15,7 C13.3431458,7 12,8.34314575 12,10 C12,11.6568542 13.3431458,13 15,13 C16.6568542,13 18,11.6568542 18,10 C18,8.34314575 16.6568542,7 15,7 Z M29.0000069,15 C28.9959228,19.1330274 27.1658448,23.0530545 24,25.71 L24,25 C24,20.0294373 19.9705627,16 15,16 C10.0294373,16 6,20.0294373 6,25 L6,25.71 C1.02890153,21.5379787 -0.423280199,14.4965069 2.49159808,8.69813939 C5.40647637,2.89977185 11.9241532,-0.135198538 18.237995,1.36579542 C24.5518369,2.86678938 29.0063969,8.51019718 29.0000069,15 L29.0000069,15 Z M20,10 C20,7.23857625 17.7614237,5 15,5 C12.2385763,5 10,7.23857625 10,10 C10,12.7614237 12.2385763,15 15,15 C17.7614237,15 20,12.7614237 20,10 Z" id="Shape"></path>
        </g>
    </g>
</svg>